<svg id="Layer_1" data-name="Layer 1" xmlns="http://www.w3.org/2000/svg" viewBox="0 0 994.73 231.14"><defs><style>.cls-1,.cls-2{fill:#f7f7f7;}.cls-2{font-size:135.13px;font-family:Magneto-Bold, Magneto;font-weight:700;}.cls-3{fill:#000;}.cls-4{fill:#ff0100;}</style></defs><title>logo</title><path class="cls-1" d="M399.22,797.27H89.48c0-1.82-.52-3.66.08-5,4.82-10.42,2.52-21.57,3.51-32.36.94-10.26.82-20.64,2.18-30.82,1-7.89,5.45-14.5,11.46-19.72-2.7,5.42-5.43,10.91-8.64,17.34,6.58.77,11.48,1.37,16.39,1.89.61.07,1.57,0,1.86-.39,3.22-4.28,7.49-8.21,9.28-13,5.41-14.64,13.94-25.5,29.8-29.25,4.51-1.07,9-2.35,14.65-3.84l-6.86,6.4.51.67a15,15,0,0,0,2-1c9.27-6.67,19.77-10.09,30.91-11.85,10.84-1.72,21.7-3.31,32.51-5.2a14.76,14.76,0,0,0,5.59-2.84c18.09-13,36-26.27,54.22-39.13,14.2-10,30.58-14.07,47.54-16.64,44.39-6.72,89-5.87,133.59-4,28.16,1.17,55,6.72,79.79,20.85a199.48,199.48,0,0,1,41.78,32.26,12.07,12.07,0,0,0,7.67,3.25c8.77.08,17.55-.66,26.34-.86,5.54-.14,11.51,6.39,10.55,11.8-.34,1.93-2.36,3.56-3.56,5.25,5.47,3.23,15.11,2.31,19.14,12h-5.91q-98,0-195.93,0a83.37,83.37,0,0,0-11.93.75c-6.12.88-10.36,4.17-12,10.44a6.41,6.41,0,0,1-1.87,3.4c-11.53,9-16.64,21.69-19.09,35.2-2.83,15.66-4,31.61-5.81,47.45A66.74,66.74,0,0,0,399.22,797.27ZM128.88,741c.7,17.49,1.39,34.58,2.08,51.74H305.42v-55.1l31.93-3.81A247.7,247.7,0,0,0,309,735.12c-3.65.37-5.71-.44-7.33-3.94-2.45-5.26-5.67-10.16-8.35-15.33-2.16-4.16-5.2-5.9-10-5.78-23,.58-46,.86-68.95,1.3-17.49.33-35,.63-52.46,1.22-3.35.12-7.57.52-9.82,2.53-7.18,6.42-13.56,13.72-20.41,20.51a8.45,8.45,0,0,1-5.16,2.53c-5.12,0-10.25-.57-15.37-.92l-.08.67ZM339.3,684.3l2.79-.63c19.46-4.22,38.78-9.49,58.44-12.34,18.22-2.64,36.8-2.81,55.24-3.79,4.88-.26,8.31-1.61,9.84-6.58,1.27-4.13,2.8-8.18,4.31-12.22,3.87-10.39,7.8-20.76,11.84-31.47a55.15,55.15,0,0,0-6.05-1.06c-13-.77-25.93-1.8-38.91-2.08-33-.71-65.95-.39-98.8,3-13.11,1.36-25.94,3.8-37.8,10.14-22,11.76-41.3,27.4-61.16,42.23-.25.18-.16.83-.29,1.72,54.12-5.8,108.1-8.87,162.3-5.55C379.71,669.41,358.94,674.89,339.3,684.3Zm194.16-12h53.66c-1.21-2.57-1.88-4.64-3-6.35-7.23-10.58-15.89-19.65-27.43-25.69-16-8.39-33-13.88-50.7-17.59-5.12-1.08-8,.37-9.64,5.1-4,11.43-8.32,22.78-12.1,34.29-3.32,10.11-2.51,10.9,8,10.12.3,0,.59-.29.87-.45,2-14.46,8.07-20.28,20.22-19a46.82,46.82,0,0,1,9.75,2c10.82,3.56,11.91,5.47,10.26,16.56A5.2,5.2,0,0,0,533.46,672.31ZM372.33,723.1c-.55,12.25-1.06,23.59-1.57,34.93A94.81,94.81,0,0,0,375,738a45.15,45.15,0,0,1,16.36-31.4c12.73-10.87,25.76-21.23,43.05-23.76,6.65-1,13.35-1.53,20-2.27a26,26,0,0,0-10.15-.85c-14.48,1.87-28.92,4.13-43.41,5.95-18.38,2.3-35.7,8.26-52.1,16.36-10.46,5.16-20,5.64-30.38,1.07-3.28-1.44-7-2.67-10.53-2.59-37.8.84-75.59,2-113.39,3a80.9,80.9,0,0,0,11,.47c29.49-.29,59-.16,88.47-1.09A85.94,85.94,0,0,1,331,710c-.87.82-1.75,1.57-2.54,2.41-3.9,4.08-2,8.22-.23,12.47s5,2.15,7.74,2c4-.23,7.93-.89,11.9-1.3C356.08,724.71,364.31,723.9,372.33,723.1Zm209.06-46.88v1.54c11.43,0,22.87.08,34.3-.08a8.5,8.5,0,0,0,4.9-2c2.32-2,1.34-6.48-1.57-6.7-6.26-.45-12.57-.14-18.86-.14-.06.43-.12.85-.17,1.28l8.55,5.1-.3,1Z" transform="translate(-89.27 -607.15)"/><text class="cls-2" transform="translate(335.38 190.17) scale(0.78 1)">Wheels<tspan class="cls-3" x="519.41" y="0"> </tspan><tspan class="cls-4" x="571.01" y="0">Doc</tspan></text></svg>