<svg id="Layer_1" data-name="Layer 1" xmlns="http://www.w3.org/2000/svg" viewBox="0 0 984.02 231.1"><defs><style>.cls-1,.cls-3{fill:#1e293b;}.cls-2,.cls-3,.cls-4,.cls-5{isolation:isolate;}.cls-3,.cls-4,.cls-5{font-size:135.13px;font-family:Magneto-Bold, Magneto;font-weight:700;}.cls-5{fill:#ff0100;}</style></defs><title>logo</title><path class="cls-1" d="M310,190.12H.21c0-1.82-.52-3.66.08-5,4.82-10.42,2.52-21.57,3.51-32.36.94-10.26.82-20.64,2.18-30.82,1-7.89,5.45-14.5,11.46-19.72-2.7,5.42-5.43,10.91-8.64,17.34,6.58.77,11.48,1.37,16.39,1.89.61.07,1.57,0,1.86-.39,3.22-4.28,7.49-8.21,9.28-13,5.41-14.64,13.94-25.5,29.8-29.25,4.51-1.07,9-2.35,14.65-3.84l-6.86,6.4.51.67a14.93,14.93,0,0,0,2-1C85.7,74.37,96.2,71,107.34,69.19c10.84-1.72,21.7-3.31,32.51-5.2a14.75,14.75,0,0,0,5.59-2.84c18.09-13,36-26.27,54.22-39.13C213.86,12,230.24,8,247.2,5.38c44.39-6.72,89-5.87,133.59-4,28.16,1.17,55,6.72,79.79,20.85a199.74,199.74,0,0,1,41.78,32.26A12.08,12.08,0,0,0,510,57.74c8.77.08,17.55-.66,26.34-.86,5.54-.14,11.51,6.39,10.55,11.8-.34,1.93-2.36,3.56-3.56,5.25,5.47,3.23,15.11,2.31,19.14,12H360.66a82,82,0,0,0-11.93.75c-6.12.88-10.36,4.17-12,10.44a6.41,6.41,0,0,1-1.87,3.4c-11.53,9-16.64,21.69-19.09,35.2-2.83,15.66-4,31.61-5.81,47.45A67.13,67.13,0,0,0,310,190.12ZM39.61,133.85c.7,17.49,1.39,34.58,2.08,51.74H216.15v-55.1l31.93-3.81A248.51,248.51,0,0,0,219.73,128c-3.65.37-5.71-.44-7.33-3.94-2.45-5.26-5.67-10.16-8.35-15.33-2.16-4.16-5.2-5.9-10-5.78-23,.58-46,.86-69,1.3-17.49.33-35,.63-52.46,1.22-3.35.12-7.57.52-9.82,2.53-7.18,6.42-13.56,13.72-20.41,20.51A8.43,8.43,0,0,1,37.25,131c-5.12,0-10.25-.57-15.37-.92l-.08.67ZM250,77.15l2.79-.63C272.28,72.3,291.6,67,311.26,64.18c18.22-2.64,36.8-2.81,55.24-3.79,4.88-.26,8.31-1.61,9.84-6.58,1.27-4.13,2.8-8.18,4.31-12.22,3.87-10.39,7.8-20.76,11.84-31.47a54.31,54.31,0,0,0-6.05-1.06c-13-.77-25.93-1.8-38.91-2.08-33-.71-65.95-.39-98.8,3-13.11,1.36-25.94,3.8-37.8,10.14-22,11.76-41.3,27.4-61.16,42.23-.25.18-.16.83-.29,1.72,54.12-5.8,108.1-8.87,162.3-5.55C290.44,62.26,269.67,67.74,250,77.15Zm194.16-12h53.66a57.11,57.11,0,0,0-3-6.35C487.62,48.22,479,39.15,467.42,33.11c-16-8.39-33-13.88-50.7-17.59-5.12-1.08-8,.37-9.64,5.1-4,11.43-8.32,22.78-12.1,34.29C391.66,65,392.47,65.81,403,65c.3,0,.59-.29.87-.45,2-14.46,8.07-20.28,20.22-19a47,47,0,0,1,9.75,2c10.82,3.56,11.91,5.47,10.26,16.56a5.05,5.05,0,0,0,.11,1ZM283.06,116c-.55,12.25-1.06,23.59-1.57,34.93a95.14,95.14,0,0,0,4.24-20,45.14,45.14,0,0,1,16.36-31.4c12.73-10.87,25.76-21.23,43.05-23.76,6.65-1,13.35-1.53,20-2.27A26,26,0,0,0,355,72.57c-14.48,1.87-28.92,4.13-43.41,6-18.38,2.3-35.7,8.26-52.1,16.36C249,100,239.48,100.52,229.1,96c-3.28-1.44-7-2.67-10.53-2.59-37.8.84-75.59,2-113.39,3a80.84,80.84,0,0,0,11,.47c29.49-.29,59-.16,88.47-1.09a85.91,85.91,0,0,1,37.08,7.11c-.87.82-1.75,1.57-2.54,2.41-3.9,4.08-2,8.22-.23,12.47s5,2.15,7.74,2c4-.23,7.93-.89,11.9-1.3C266.81,117.56,275,116.75,283.06,116ZM492.12,69.07v1.54c11.43,0,22.87.08,34.3-.08a8.53,8.53,0,0,0,4.9-2c2.32-2,1.34-6.48-1.57-6.7-6.26-.45-12.57-.14-18.86-.14-.06.43-.12.85-.17,1.28l8.55,5.1-.3,1Z" transform="translate(0 -0.04)"/><g class="cls-2"><text class="cls-3" transform="translate(335.38 190.13) scale(0.78 1)">Wheels</text><text class="cls-4" transform="translate(740.52 190.13) scale(0.78 1)"> </text><text class="cls-5" transform="translate(766.77 190.13) scale(0.78 1)">Doc</text></g></svg>